<?xml version="1.0" encoding="UTF-8" standalone="no"?>
<!-- Created with Inkscape (http://www.inkscape.org/) -->

<svg
   version="1.1"
   id="svg2"
   width="489.09293"
   height="172.224"
   viewBox="0 0 489.09293 172.224"
   xmlns="http://www.w3.org/2000/svg"
   xmlns:svg="http://www.w3.org/2000/svg">
  <defs
     id="defs6">
    <clipPath
       clipPathUnits="userSpaceOnUse"
       id="clipPath18">
      <path
         d="M 0,476.218 H 666.138 V 0 H 0 Z"
         id="path16" />
    </clipPath>
  </defs>
  <g
     id="g10"
     transform="matrix(1.3333333,0,0,-1.3333333,-198.85133,402.77999)">
    <g
       id="g12">
      <g
         id="g14"
         clip-path="url(#clipPath18)">
        <g
           id="g20"
           transform="translate(186.5815,224.417)">
          <path
             d="m 0,0 -7.423,-8.808 c -2.326,3.158 -5.815,5.207 -8.806,5.207 -4.653,0 -8.031,-3.711 -8.031,-8.863 0,-5.207 3.378,-8.973 8.031,-8.973 2.768,0 6.257,1.716 8.806,4.431 L 0,-24.926 c -4.322,-4.709 -10.913,-7.755 -16.895,-7.755 -11.907,0 -20.548,8.474 -20.548,20.05 0,11.411 8.861,19.721 21.047,19.721 C -10.47,7.09 -3.988,4.319 0,0"
             style="fill:#f63440;fill-opacity:1;fill-rule:nonzero;stroke:none"
             id="path22" />
        </g>
        <g
           id="g24"
           transform="translate(199.8765,211.6768)">
          <path
             d="m 0,0 c 0,-5.318 3.878,-9.25 8.309,-9.25 4.431,0 7.976,3.932 7.976,9.25 0,5.316 -3.545,9.14 -7.976,9.14 C 3.823,9.14 0,5.316 0,0 m 29.467,0.056 c 0,-11.523 -8.972,-19.996 -21.325,-19.996 -12.35,0 -21.325,8.418 -21.325,19.996 0,11.52 8.975,19.774 21.325,19.774 12.353,0 21.325,-8.309 21.325,-19.774"
             style="fill:#f63440;fill-opacity:1;fill-rule:nonzero;stroke:none"
             id="path26" />
        </g>
        <g
           id="g28"
           transform="translate(259.5254,192.29)">
          <path
             d="M 0,0 -15.288,19.83 V 0 h -11.685 v 38.827 h 10.744 L -0.886,18.889 V 38.827 H 10.746 V 0 Z"
             style="fill:#f63440;fill-opacity:1;fill-rule:nonzero;stroke:none"
             id="path30" />
        </g>
        <g
           id="g32"
           transform="translate(309.9678,227.0742)">
          <path
             d="m 0,0 -4.653,-9.747 c -3.932,2.158 -9.969,4.542 -13.349,4.542 -1.44,0 -2.381,-0.445 -2.381,-1.607 0,-4.876 20.105,-1.83 20.105,-15.898 0,-8.641 -7.588,-12.461 -16.338,-12.461 -6.758,0 -14.291,2.27 -19.443,6.204 l 4.765,9.635 c 3.988,-3.322 10.855,-6.037 14.789,-6.037 1.883,0 3.1,0.61 3.1,1.994 0,5.043 -20.105,1.718 -20.105,15.344 0,7.755 6.535,12.628 16.616,12.628 C -10.746,4.597 -4.375,2.771 0,0"
             style="fill:#f63440;fill-opacity:1;fill-rule:nonzero;stroke:none"
             id="path34" />
        </g>
        <g
           id="g36"
           transform="translate(350.7598,208.7422)">
          <path
             d="m 0,0 c 0,-10.304 -7.257,-17.006 -18.499,-17.006 -11.3,0 -18.777,6.702 -18.777,17.006 v 22.375 h 12.849 V 0 c 0,-3.823 2.771,-6.315 5.982,-6.315 3.158,0 5.594,2.436 5.594,6.315 V 22.375 H 0 Z"
             style="fill:#f63440;fill-opacity:1;fill-rule:nonzero;stroke:none"
             id="path38" />
        </g>
        <g
           id="g40"
           transform="translate(383.7285,202.9805)">
          <path
             d="m 0,0 v -10.69 h -28.022 v 38.827 h 12.848 V 0 Z"
             style="fill:#f63440;fill-opacity:1;fill-rule:nonzero;stroke:none"
             id="path42" />
        </g>
        <g
           id="g44"
           transform="translate(402.7197,220.9805)">
          <path
             d="M 0,0 V -28.69 H -12.85 V 0 h -11.023 v 10.137 h 34.95 L 11.077,0 Z"
             style="fill:#f63440;fill-opacity:1;fill-rule:nonzero;stroke:none"
             id="path46" />
        </g>
        <g
           id="g48"
           transform="translate(417.5117,192.29)">
          <path
             d="M 0,0 V 38.827 H 12.849 L 12.85,0 Z"
             style="fill:#f63440;fill-opacity:1;fill-rule:nonzero;stroke:none"
             id="path50" />
        </g>
        <g
           id="g52"
           transform="translate(462.6006,192.29)">
          <path
             d="M 0,0 -15.288,19.83 V 0 h -11.685 v 38.827 h 10.744 L -0.886,18.889 V 38.827 H 10.746 V 0 Z"
             style="fill:#f63440;fill-opacity:1;fill-rule:nonzero;stroke:none"
             id="path54" />
        </g>
        <path
           d="m 430.361,172.917 h -12.85 v 12.746 h 12.85 z"
           style="fill:#f63440;fill-opacity:1;fill-rule:nonzero;stroke:none"
           id="path56" />
        <g
           id="g58"
           transform="translate(499.042,207.1387)">
          <path
             d="m 0,0 h 4.544 v -3.439 c -1.883,-0.775 -3.768,-1.273 -5.096,-1.273 -5.04,0 -8.752,3.876 -8.752,9.25 0,5.261 3.657,9.14 8.641,9.14 3.214,0 6.978,-1.607 9.582,-4.1 l 7.257,8.806 c -4.155,3.656 -10.746,5.984 -16.783,5.984 -12.685,0 -21.879,-8.365 -21.879,-19.83 0,-11.522 8.863,-19.94 21.049,-19.94 5.539,0 12.684,2.104 17.003,4.984 V 7.392 H 0 Z"
             style="fill:#f63440;fill-opacity:1;fill-rule:nonzero;stroke:none"
             id="path60" />
        </g>
        <path
           d="m 378.847,282.712 h 12.851 v -38.827 h -12.851 z"
           style="fill:#415464;fill-opacity:1;fill-rule:nonzero;stroke:none"
           id="path62" />
        <g
           id="g64"
           transform="translate(423.9375,243.8853)">
          <path
             d="M 0,0 -15.286,19.83 V 0 h -11.687 v 38.827 h 10.746 L -0.886,18.888 V 38.827 H 10.746 V 0 Z"
             style="fill:#415464;fill-opacity:1;fill-rule:nonzero;stroke:none"
             id="path66" />
        </g>
        <g
           id="g68"
           transform="translate(452.9336,272.9653)">
          <path
             d="m 0,0 v -6.703 h 17.227 v -9.749 H 0 V -29.08 H -12.849 V 9.747 h 31.24 V 0 Z"
             style="fill:#415464;fill-opacity:1;fill-rule:nonzero;stroke:none"
             id="path70" />
        </g>
        <g
           id="g72"
           transform="translate(486.4902,263.272)">
          <path
             d="m 0,0 c 0,-5.318 3.879,-9.25 8.31,-9.25 4.43,0 7.975,3.932 7.975,9.25 0,5.316 -3.545,9.139 -7.975,9.139 C 3.823,9.139 0,5.316 0,0 m 29.468,0.056 c 0,-11.523 -8.973,-19.997 -21.325,-19.997 -12.351,0 -21.326,8.419 -21.326,19.997 0,11.52 8.975,19.774 21.326,19.774 12.352,0 21.325,-8.309 21.325,-19.774"
             style="fill:#415464;fill-opacity:1;fill-rule:nonzero;stroke:none"
             id="path74" />
        </g>
        <path
           d="m 391.697,289.339 h -12.851 v 12.746 h 12.851 z"
           style="fill:#415464;fill-opacity:1;fill-rule:nonzero;stroke:none"
           id="path76" />
      </g>
    </g>
  </g>
</svg>
